<?xml version="1.0" encoding="UTF-8" standalone="no"?>
<svg
   xmlns:dc="http://purl.org/dc/elements/1.1/"
   xmlns:cc="http://creativecommons.org/ns#"
   xmlns:rdf="http://www.w3.org/1999/02/22-rdf-syntax-ns#"
   xmlns:svg="http://www.w3.org/2000/svg"
   xmlns="http://www.w3.org/2000/svg"
   xmlns:sodipodi="http://sodipodi.sourceforge.net/DTD/sodipodi-0.dtd"
   xmlns:inkscape="http://www.inkscape.org/namespaces/inkscape"
   width="77pt"
   height="77pt"
   viewBox="0 0 77 77"
   version="1.1"
   id="svg2"
   inkscape:version="0.48.4 r9939"
   sodipodi:docname="out.svg">
  <metadata
     id="metadata25">
    <rdf:RDF>
      <cc:Work
         rdf:about="">
        <dc:format>image/svg+xml</dc:format>
        <dc:type
           rdf:resource="http://purl.org/dc/dcmitype/StillImage" />
      </cc:Work>
    </rdf:RDF>
  </metadata>
  <defs
     id="defs23" />
  <sodipodi:namedview
     pagecolor="#ffffff"
     bordercolor="#666666"
     borderopacity="1"
     objecttolerance="10"
     gridtolerance="10"
     guidetolerance="10"
     inkscape:pageopacity="0"
     inkscape:pageshadow="2"
     inkscape:window-width="1260"
     inkscape:window-height="742"
     id="namedview21"
     showgrid="false"
     inkscape:zoom="5.6568543"
     inkscape:cx="35.751772"
     inkscape:cy="55.517845"
     inkscape:window-x="0"
     inkscape:window-y="27"
     inkscape:window-maximized="0"
     inkscape:current-layer="svg2" />
  <g
     id="surface1"
     style="fill:#000000;fill-opacity:1">
    <path
       style="stroke:none;fill-rule:nonzero;fill:#000000;fill-opacity:1"
       d="M 11.449219 66.324219 L 65.554688 66.324219 L 65.554688 69.101562 L 11.449219 69.101562 Z M 11.449219 66.324219 "
       id="path5" />
    <path
       style="stroke:none;fill-rule:nonzero;fill:#000000;fill-opacity:1"
       d="M 13.582031 60.992188 L 63.527344 60.992188 L 63.527344 64.832031 L 13.582031 64.832031 Z M 13.582031 60.992188 "
       id="path7" />
    <path
       style="stroke:none;fill-rule:nonzero;fill:#000000;fill-opacity:1"
       d="M 13.261719 17.238281 L 62.941406 17.238281 L 62.941406 22.570312 L 13.261719 22.570312 Z M 13.261719 17.238281 "
       id="path9" />
    <path
       style="stroke:none;fill-rule:nonzero;fill:#000000;fill-opacity:1"
       d="M 38.101562 15.636719 L 62.617188 15.636719 L 64.113281 13.980469 L 38.101562 7.898438 L 12.085938 13.980469 L 13.582031 15.636719 Z M 38.101562 15.636719 "
       id="path11" />
    <path
       style="stroke:none;fill-rule:nonzero;fill:#000000;fill-opacity:1"
       d="M 19.839844 24.203125 C 19.828125 23.992188 19.738281 23.945312 19.5625 23.90625 C 18.835938 23.75 18.101562 23.671875 17.367188 23.671875 C 16.632812 23.675781 15.898438 23.75 15.171875 23.90625 C 14.996094 23.945312 14.90625 23.992188 14.894531 24.203125 C 14.773438 26.671875 14.617188 29.136719 14.519531 31.601562 C 14.417969 34.222656 14.347656 36.839844 14.304688 39.464844 C 14.277344 41.320312 14.292969 43.179688 14.324219 45.039062 C 14.355469 47.097656 14.402344 49.15625 14.488281 51.21875 C 14.574219 53.429688 14.714844 55.636719 14.835938 57.84375 C 14.859375 58.269531 14.902344 58.691406 14.9375 59.105469 C 15.753906 59.316406 16.558594 59.4375 17.371094 59.449219 C 18.179688 59.4375 18.988281 59.316406 19.804688 59.105469 C 19.835938 58.691406 19.878906 58.269531 19.902344 57.84375 C 20.023438 55.636719 20.164062 53.429688 20.253906 51.21875 C 20.335938 49.160156 20.382812 47.097656 20.417969 45.039062 C 20.445312 43.179688 20.460938 41.320312 20.433594 39.464844 C 20.390625 36.839844 20.324219 34.222656 20.21875 31.601562 C 20.117188 29.136719 19.960938 26.671875 19.839844 24.203125 Z M 19.839844 24.203125 "
       id="path13" />
    <path
       style="stroke:none;fill-rule:nonzero;fill:#000000;fill-opacity:1"
       d="M 33.363281 24.203125 C 33.351562 23.992188 33.265625 23.945312 33.085938 23.90625 C 32.359375 23.75 31.628906 23.671875 30.894531 23.671875 C 30.160156 23.675781 29.425781 23.75 28.699219 23.90625 C 28.523438 23.945312 28.433594 23.992188 28.421875 24.203125 C 28.300781 26.671875 28.140625 29.136719 28.046875 31.601562 C 27.945312 34.222656 27.878906 36.839844 27.832031 39.464844 C 27.800781 41.320312 27.820312 43.179688 27.851562 45.039062 C 27.882812 47.097656 27.929688 49.15625 28.011719 51.21875 C 28.105469 53.429688 28.242188 55.636719 28.363281 57.84375 C 28.386719 58.269531 28.429688 58.691406 28.460938 59.105469 C 29.277344 59.316406 30.085938 59.4375 30.894531 59.449219 C 31.703125 59.4375 32.511719 59.316406 33.328125 59.105469 C 33.359375 58.691406 33.402344 58.269531 33.425781 57.84375 C 33.546875 55.636719 33.6875 53.429688 33.777344 51.21875 C 33.859375 49.160156 33.902344 47.097656 33.9375 45.039062 C 33.96875 43.179688 33.984375 41.320312 33.957031 39.464844 C 33.914062 36.839844 33.847656 34.222656 33.742188 31.601562 C 33.644531 29.136719 33.484375 26.671875 33.363281 24.203125 Z M 33.363281 24.203125 "
       id="path15" />
    <path
       style="stroke:none;fill-rule:nonzero;fill:#000000;fill-opacity:1"
       d="M 49.050781 24.203125 C 49.039062 23.992188 48.949219 23.945312 48.773438 23.90625 C 48.042969 23.75 47.316406 23.671875 46.578125 23.671875 C 45.84375 23.675781 45.113281 23.75 44.386719 23.90625 C 44.210938 23.945312 44.121094 23.992188 44.109375 24.203125 C 43.988281 26.671875 43.832031 29.136719 43.730469 31.601562 C 43.632812 34.222656 43.5625 36.839844 43.519531 39.464844 C 43.488281 41.320312 43.507812 43.179688 43.535156 45.039062 C 43.570312 47.097656 43.617188 49.15625 43.699219 51.21875 C 43.789062 53.429688 43.925781 55.636719 44.046875 57.84375 C 44.074219 58.269531 44.113281 58.691406 44.148438 59.105469 C 44.964844 59.316406 45.773438 59.4375 46.582031 59.449219 C 47.390625 59.4375 48.195312 59.316406 49.011719 59.105469 C 49.046875 58.691406 49.089844 58.269531 49.113281 57.84375 C 49.234375 55.636719 49.371094 53.429688 49.460938 51.21875 C 49.542969 49.160156 49.589844 47.097656 49.625 45.039062 C 49.652344 43.179688 49.671875 41.320312 49.640625 39.464844 C 49.597656 36.839844 49.53125 34.222656 49.429688 31.601562 C 49.328125 29.136719 49.167969 26.671875 49.050781 24.203125 Z M 49.050781 24.203125 "
       id="path17" />
    <path
       style="stroke:none;fill-rule:nonzero;fill:#000000;fill-opacity:1"
       d="M 62.257812 24.203125 C 62.25 23.992188 62.160156 23.945312 61.980469 23.90625 C 61.25 23.75 60.523438 23.671875 59.785156 23.671875 C 59.050781 23.675781 58.320312 23.75 57.59375 23.90625 C 57.414062 23.945312 57.328125 23.992188 57.3125 24.203125 C 57.195312 26.671875 57.039062 29.136719 56.9375 31.601562 C 56.839844 34.222656 56.769531 36.839844 56.726562 39.464844 C 56.695312 41.320312 56.710938 43.179688 56.746094 45.039062 C 56.777344 47.097656 56.824219 49.15625 56.90625 51.21875 C 56.996094 53.429688 57.132812 55.636719 57.257812 57.84375 C 57.277344 58.269531 57.320312 58.691406 57.355469 59.105469 C 58.171875 59.316406 58.980469 59.4375 59.789062 59.449219 C 60.597656 59.4375 61.402344 59.316406 62.21875 59.105469 C 62.25 58.691406 62.296875 58.269531 62.320312 57.84375 C 62.441406 55.636719 62.578125 53.429688 62.667969 51.21875 C 62.75 49.160156 62.796875 47.097656 62.832031 45.039062 C 62.859375 43.179688 62.875 41.320312 62.847656 39.464844 C 62.804688 36.839844 62.738281 34.222656 62.636719 31.601562 C 62.535156 29.136719 62.375 26.671875 62.257812 24.203125 Z M 62.257812 24.203125 "
       id="path19" />
  </g>
</svg>
